<svg xmlns="http://www.w3.org/2000/svg" width="216" height="207" fill="none">
    <path stroke="#0083B5" stroke-width="12" d="m26.62 149.508 15.7 18.631c7.75 9.198 16.51 17.696 27.138 23.327 13.908 7.37 25.588 9.913 39.96 9.335 11.398-.458 22.41-4.045 32.769-8.82C157.08 185.117 168.186 179.254 184 170c24.5-16 27-24.5 25.5-48.5l-12.5-75C188 5 161-2.5 126.5 16L40.203 65.123c-7.451 4.241-14.698 8.992-20.54 15.267-13.921 14.95-15.247 26.935-9.519 42.756 3.552 9.809 9.753 18.385 16.475 26.362z"/>
</svg>